<svg width="1440" height="398" viewBox="0 0 1440 398" fill="none" xmlns="http://www.w3.org/2000/svg">
<g filter="url(#filter0_i_265_1488)">
<path d="M-7.91477 396V192.364H68.4489C84.0928 192.364 97.2178 195.28 107.824 201.114C118.496 206.947 126.55 214.968 131.986 225.176C137.488 235.318 140.239 246.852 140.239 259.778C140.239 272.837 137.488 284.437 131.986 294.58C126.484 304.722 118.364 312.709 107.625 318.543C96.8864 324.31 83.6619 327.193 67.9517 327.193H17.3409V296.866H62.9801C72.1278 296.866 79.6184 295.276 85.4517 292.094C91.285 288.912 95.5938 284.537 98.3778 278.969C101.228 273.401 102.653 267.004 102.653 259.778C102.653 252.553 101.228 246.189 98.3778 240.688C95.5938 235.186 91.2519 230.91 85.3523 227.861C79.5189 224.745 71.9953 223.188 62.7812 223.188H28.9744V396H-7.91477ZM172.281 396V192.364H248.644C264.288 192.364 277.413 195.081 288.019 200.517C298.692 205.953 306.746 213.576 312.181 223.386C317.683 233.131 320.434 244.499 320.434 257.491C320.434 270.55 317.65 281.885 312.082 291.497C306.58 301.043 298.46 308.434 287.721 313.67C276.982 318.841 263.791 321.426 248.147 321.426H193.758V290.801H243.175C252.323 290.801 259.814 289.542 265.647 287.023C271.48 284.437 275.789 280.692 278.573 275.787C281.424 270.815 282.849 264.717 282.849 257.491C282.849 250.266 281.424 244.101 278.573 238.997C275.723 233.827 271.381 229.916 265.548 227.264C259.714 224.546 252.191 223.188 242.977 223.188H209.17V396H172.281ZM277.479 303.727L327.891 396H286.727L237.21 303.727H277.479ZM536.35 294.182C536.35 316.123 532.24 334.916 524.021 350.56C515.867 366.137 504.731 378.069 490.612 386.355C476.558 394.641 460.616 398.784 442.785 398.784C424.953 398.784 408.978 394.641 394.859 386.355C380.806 378.003 369.669 366.038 361.45 350.46C353.296 334.816 349.219 316.057 349.219 294.182C349.219 272.241 353.296 253.481 361.45 237.903C369.669 222.259 380.806 210.295 394.859 202.009C408.978 193.723 424.953 189.58 442.785 189.58C460.616 189.58 476.558 193.723 490.612 202.009C504.731 210.295 515.867 222.259 524.021 237.903C532.24 253.481 536.35 272.241 536.35 294.182ZM499.262 294.182C499.262 278.737 496.843 265.711 492.004 255.105C487.231 244.433 480.602 236.379 472.117 230.943C463.632 225.441 453.855 222.69 442.785 222.69C431.715 222.69 421.937 225.441 413.452 230.943C404.968 236.379 398.306 244.433 393.467 255.105C388.694 265.711 386.308 278.737 386.308 294.182C386.308 309.627 388.694 322.686 393.467 333.358C398.306 343.964 404.968 352.018 413.452 357.52C421.937 362.955 431.715 365.673 442.785 365.673C453.855 365.673 463.632 362.955 472.117 357.52C480.602 352.018 487.231 343.964 492.004 333.358C496.843 322.686 499.262 309.627 499.262 294.182ZM428.964 172.278L451.237 126.838H486.435L455.91 172.278H428.964ZM681.893 248.344C680.965 239.66 677.054 232.899 670.161 228.06C663.333 223.221 654.45 220.801 643.513 220.801C635.823 220.801 629.228 221.961 623.726 224.281C618.224 226.601 614.015 229.75 611.098 233.727C608.181 237.705 606.69 242.245 606.624 247.349C606.624 251.592 607.585 255.271 609.507 258.386C611.496 261.502 614.18 264.153 617.561 266.341C620.942 268.462 624.687 270.252 628.797 271.71C632.907 273.169 637.05 274.395 641.226 275.389L660.317 280.162C668.006 281.952 675.397 284.371 682.49 287.42C689.649 290.47 696.046 294.314 701.68 298.955C707.381 303.595 711.889 309.196 715.203 315.759C718.518 322.321 720.175 330.01 720.175 338.827C720.175 350.759 717.125 361.265 711.027 370.347C704.929 379.362 696.112 386.421 684.578 391.526C673.11 396.563 659.223 399.082 642.916 399.082C627.073 399.082 613.319 396.63 601.652 391.724C590.052 386.819 580.97 379.66 574.408 370.247C567.911 360.834 564.398 349.366 563.868 335.844H600.161C600.691 342.937 602.878 348.836 606.723 353.543C610.568 358.249 615.572 361.762 621.737 364.082C627.968 366.402 634.929 367.562 642.618 367.562C650.639 367.562 657.665 366.369 663.697 363.983C669.796 361.53 674.569 358.15 678.016 353.841C681.463 349.466 683.219 344.362 683.286 338.528C683.219 333.225 681.661 328.85 678.612 325.403C675.563 321.89 671.287 318.973 665.786 316.653C660.35 314.267 653.986 312.146 646.695 310.29L623.527 304.324C606.756 300.015 593.499 293.486 583.754 284.736C574.076 275.92 569.237 264.22 569.237 249.636C569.237 237.638 572.485 227.132 578.982 218.116C585.544 209.101 594.46 202.108 605.729 197.136C616.998 192.098 629.758 189.58 644.01 189.58C658.461 189.58 671.122 192.098 681.993 197.136C692.93 202.108 701.515 209.035 707.746 217.918C713.977 226.734 717.192 236.876 717.391 248.344H681.893ZM753.062 396V192.364H829.425C845.069 192.364 858.194 195.28 868.8 201.114C879.473 206.947 887.527 214.968 892.962 225.176C898.464 235.318 901.215 246.852 901.215 259.778C901.215 272.837 898.464 284.437 892.962 294.58C887.46 304.722 879.34 312.709 868.602 318.543C857.863 324.31 844.638 327.193 828.928 327.193H778.317V296.866H823.957C833.104 296.866 840.595 295.276 846.428 292.094C852.262 288.912 856.57 284.537 859.354 278.969C862.205 273.401 863.63 267.004 863.63 259.778C863.63 252.553 862.205 246.189 859.354 240.688C856.57 235.186 852.228 230.91 846.329 227.861C840.496 224.745 832.972 223.188 823.758 223.188H789.951V396H753.062ZM933.257 396V192.364H1065.7V223.287H970.146V278.571H1058.84V309.494H970.146V365.077H1066.5V396H933.257ZM1103.34 396V192.364H1179.7C1195.34 192.364 1208.47 195.081 1219.07 200.517C1229.75 205.953 1237.8 213.576 1243.24 223.386C1248.74 233.131 1251.49 244.499 1251.49 257.491C1251.49 270.55 1248.7 281.885 1243.14 291.497C1237.63 301.043 1229.51 308.434 1218.78 313.67C1208.04 318.841 1194.85 321.426 1179.2 321.426H1124.81V290.801H1174.23C1183.38 290.801 1190.87 289.542 1196.7 287.023C1202.54 284.437 1206.84 280.692 1209.63 275.787C1212.48 270.815 1213.9 264.717 1213.9 257.491C1213.9 250.266 1212.48 244.101 1209.63 238.997C1206.78 233.827 1202.44 229.916 1196.6 227.264C1190.77 224.546 1183.25 223.188 1174.03 223.188H1140.22V396H1103.34ZM1208.53 303.727L1258.95 396H1217.78L1168.26 303.727H1208.53ZM1311.6 396H1272.22L1343.91 192.364H1389.45L1461.24 396H1421.87L1367.48 234.125H1365.88L1311.6 396ZM1312.89 316.156H1420.27V345.787H1312.89V316.156Z" fill="black" fill-opacity="0.2"/>
</g>
<path d="M0 0H1440V398H0V0Z" fill="url(#paint0_linear_265_1488)"/>
<defs>
<filter id="filter0_i_265_1488" x="-7.91479" y="126.838" width="1469.15" height="276.245" filterUnits="userSpaceOnUse" color-interpolation-filters="sRGB">
<feFlood flood-opacity="0" result="BackgroundImageFix"/>
<feBlend mode="normal" in="SourceGraphic" in2="BackgroundImageFix" result="shape"/>
<feColorMatrix in="SourceAlpha" type="matrix" values="0 0 0 0 0 0 0 0 0 0 0 0 0 0 0 0 0 0 127 0" result="hardAlpha"/>
<feOffset dy="4"/>
<feGaussianBlur stdDeviation="16"/>
<feComposite in2="hardAlpha" operator="arithmetic" k2="-1" k3="1"/>
<feColorMatrix type="matrix" values="0 0 0 0 0 0 0 0 0 0 0 0 0 0 0 0 0 0 0.15 0"/>
<feBlend mode="normal" in2="shape" result="effect1_innerShadow_265_1488"/>
</filter>
<linearGradient id="paint0_linear_265_1488" x1="297.5" y1="544" x2="301" y2="35" gradientUnits="userSpaceOnUse">
<stop stop-color="white"/>
<stop offset="0.334513" stop-color="white" stop-opacity="0.95"/>
<stop offset="0.652326" stop-color="white" stop-opacity="0.8"/>
<stop offset="1" stop-color="white" stop-opacity="0"/>
</linearGradient>
</defs>
</svg>
